<svg width="300" height="300" viewBox="0 0 300 300" fill="none" xmlns="http://www.w3.org/2000/svg">
<path id="firstNameInitial" d="M125.924 211.314C126.346 211.313 126.709 211.254 127.013 211.136C127.505 210.948 128.501 210.629 130 210.181C131.499 209.709 133.349 209.143 135.551 208.482C137.776 207.797 140.282 207.042 143.07 206.216C145.857 205.366 148.796 204.481 151.888 203.561C155.003 202.617 158.189 201.661 161.445 200.693C164.701 199.702 167.909 198.734 171.072 197.79L171.036 197.79C171.692 197.625 172.348 197.448 173.004 197.259C173.683 197.046 174.304 196.846 174.866 196.657C175.428 196.445 175.908 196.245 176.306 196.057C176.728 195.845 177.009 195.668 177.149 195.528C177.547 195.152 177.862 194.647 178.095 194.014C178.328 193.381 178.444 192.759 178.443 192.15C178.441 191.33 178.287 190.65 177.981 190.112C177.699 189.573 177.264 189.117 176.678 188.743C176.114 188.346 175.41 188.008 174.566 187.728C173.722 187.425 172.76 187.111 171.681 186.785L143.643 178.019L142.166 177.53C146.054 176.257 149.532 175.183 152.601 174.309C155.669 173.412 158.398 172.645 160.787 172.007C163.2 171.346 165.32 170.779 167.147 170.306C168.974 169.81 170.614 169.326 172.066 168.854C172.792 168.619 173.53 168.383 174.279 168.147C175.029 167.911 175.708 167.616 176.316 167.264C176.925 166.887 177.416 166.418 177.79 165.854C178.187 165.267 178.385 164.494 178.383 163.533C178.381 162.712 178.251 161.998 177.992 161.389C177.756 160.78 177.204 160.301 176.336 159.951C175.937 159.788 175.527 159.625 175.105 159.461C174.683 159.298 174.143 159.1 173.486 158.867C172.853 158.611 172.044 158.308 171.059 157.958C170.074 157.609 168.819 157.178 167.294 156.665C165.77 156.153 163.929 155.547 161.771 154.849C159.613 154.15 157.022 153.323 153.996 152.369C150.994 151.391 147.5 150.285 143.513 149.051C139.549 147.793 135.011 146.373 129.898 144.79C129.148 144.511 128.503 144.289 127.963 144.126C127.424 143.94 126.92 143.824 126.451 143.778C125.841 143.732 125.267 143.769 124.728 143.887C124.189 143.982 123.709 144.17 123.288 144.452C122.89 144.735 122.575 145.122 122.341 145.615C122.108 146.107 121.992 146.717 121.994 147.443C121.996 148.381 122.196 149.154 122.596 149.763C122.972 150.371 123.442 150.874 124.005 151.271C124.569 151.645 125.179 151.937 125.835 152.146C126.492 152.356 127.102 152.519 127.665 152.635C129.306 153.077 131.124 153.577 133.117 154.135C135.134 154.693 137.244 155.287 139.449 155.915C141.653 156.543 143.893 157.195 146.168 157.87C148.466 158.544 150.706 159.219 152.887 159.895C155.091 160.546 157.179 161.198 159.149 161.85C161.119 162.479 162.901 163.073 164.496 163.632C162.014 164.528 159.496 165.342 156.943 166.074C154.413 166.805 151.86 167.537 149.283 168.269C146.73 168.978 144.165 169.721 141.589 170.5C139.036 171.256 136.494 172.105 133.965 173.047C133.497 173.236 132.981 173.378 132.419 173.473C131.857 173.544 131.388 173.58 131.013 173.581C130.357 173.582 129.818 173.712 129.397 173.971C128.975 174.23 128.636 174.57 128.379 174.993C128.146 175.392 127.971 175.849 127.855 176.365C127.762 176.881 127.716 177.396 127.717 177.912C127.719 178.779 127.838 179.482 128.073 180.021C128.332 180.536 128.673 180.957 129.096 181.284C129.518 181.588 129.987 181.821 130.503 181.984C131.043 182.124 131.594 182.24 132.156 182.332C132.485 182.379 132.801 182.437 133.106 182.506C133.434 182.552 133.762 182.622 134.091 182.715C135.498 183.111 137.046 183.553 138.734 184.041C140.446 184.507 142.217 185.007 144.046 185.542C145.899 186.077 147.763 186.636 149.639 187.218C151.539 187.776 153.38 188.347 155.162 188.929C156.968 189.488 158.68 190.047 160.299 190.606C161.917 191.141 163.371 191.642 164.661 192.108C163.069 192.698 161.195 193.311 159.04 193.948C156.909 194.562 154.636 195.2 152.224 195.861C149.834 196.499 147.375 197.148 144.845 197.81C142.315 198.448 139.844 199.086 137.431 199.724C135.042 200.338 132.781 200.941 130.65 201.531C128.518 202.121 126.668 202.676 125.098 203.195C124.185 203.736 123.46 204.276 122.922 204.817C122.384 205.333 122.116 206.107 122.118 207.139C122.12 207.748 122.226 208.31 122.438 208.825C122.627 209.317 122.897 209.75 123.25 210.125C123.602 210.499 124.001 210.791 124.447 211.001C124.916 211.211 125.408 211.315 125.924 211.314Z" fill="currentColor"/>
<path id="lastNameInitial" d="M173.369 155.217C172.947 155.218 172.584 155.16 172.279 155.044C171.786 154.857 170.79 154.543 169.289 154.101C167.788 153.635 165.935 153.077 163.73 152.425C161.502 151.75 158.993 151.005 156.202 150.191C153.412 149.353 150.468 148.48 147.373 147.572C144.253 146.641 141.064 145.699 137.804 144.745C134.544 143.767 131.331 142.813 128.165 141.882L128.201 141.882C127.544 141.719 126.887 141.545 126.231 141.359C125.551 141.149 124.929 140.951 124.366 140.765C123.803 140.555 123.322 140.357 122.924 140.17C122.501 139.96 122.22 139.785 122.079 139.645C121.679 139.271 121.362 138.767 121.126 138.135C120.891 137.503 120.772 136.882 120.771 136.272C120.769 135.452 120.92 134.772 121.224 134.232C121.504 133.693 121.936 133.235 122.522 132.859C123.083 132.459 123.786 132.118 124.629 131.835C125.472 131.528 126.432 131.21 127.51 130.879L155.511 121.997L156.986 121.501C153.093 120.244 149.61 119.185 146.538 118.324C143.466 117.44 140.734 116.684 138.342 116.056C135.926 115.405 133.804 114.847 131.975 114.382C130.146 113.893 128.504 113.416 127.05 112.951C126.323 112.718 125.584 112.485 124.834 112.252C124.083 112.019 123.403 111.728 122.793 111.378C122.183 111.004 121.69 110.536 121.314 109.974C120.914 109.389 120.713 108.616 120.711 107.655C120.709 106.835 120.837 106.12 121.093 105.51C121.326 104.9 121.876 104.418 122.743 104.065C123.141 103.9 123.551 103.735 123.972 103.57C124.394 103.405 124.932 103.205 125.588 102.969C126.22 102.71 127.028 102.404 128.012 102.05C128.995 101.697 130.248 101.26 131.771 100.742C133.293 100.223 135.132 99.6095 137.287 98.9019C139.441 98.1943 142.029 97.3568 145.051 96.3896C148.049 95.3989 151.539 94.2783 155.52 93.0278C159.479 91.7539 164.011 90.3148 169.117 88.7103C169.866 88.4275 170.51 88.2035 171.049 88.0383C171.588 87.8497 172.091 87.7315 172.56 87.6836C173.169 87.6355 173.744 87.6694 174.283 87.7855C174.822 87.8781 175.303 88.0646 175.725 88.345C176.125 88.6254 176.442 89.0114 176.677 89.5031C176.913 89.9948 177.031 90.604 177.033 91.3305C177.034 92.268 176.837 93.0419 176.44 93.6521C176.066 94.2622 175.598 94.7671 175.037 95.1667C174.475 95.5429 173.866 95.8372 173.21 96.0495C172.555 96.2618 171.946 96.4271 171.383 96.5455C169.744 96.9942 167.928 97.5019 165.937 98.0686C163.923 98.6353 161.815 99.2373 159.613 99.8748C157.411 100.512 155.174 101.173 152.902 101.858C150.607 102.542 148.37 103.226 146.192 103.911C143.99 104.571 141.905 105.232 139.938 105.892C137.97 106.529 136.19 107.131 134.598 107.697C137.084 108.582 139.605 109.385 142.162 110.107C144.694 110.828 147.25 111.549 149.83 112.27C152.386 112.968 154.954 113.701 157.534 114.469C160.09 115.214 162.635 116.052 165.168 116.984C165.637 117.171 166.153 117.31 166.716 117.403C167.279 117.472 167.747 117.506 168.122 117.505C168.779 117.504 169.318 117.632 169.74 117.889C170.163 118.146 170.503 118.485 170.762 118.906C170.997 119.304 171.174 119.761 171.292 120.276C171.387 120.792 171.435 121.307 171.436 121.823C171.438 122.69 171.322 123.393 171.089 123.933C170.832 124.449 170.493 124.872 170.072 125.201C169.651 125.506 169.183 125.742 168.667 125.907C168.128 126.048 167.578 126.167 167.016 126.262C166.688 126.309 166.371 126.369 166.067 126.439C165.739 126.487 165.411 126.558 165.083 126.652C163.677 127.054 162.132 127.502 160.445 127.998C158.735 128.47 156.967 128.978 155.14 129.521C153.289 130.064 151.427 130.63 149.553 131.22C147.656 131.787 145.817 132.365 144.037 132.954C142.234 133.521 140.524 134.087 138.908 134.652C137.292 135.195 135.84 135.702 134.552 136.173C136.147 136.756 138.023 137.361 140.181 137.99C142.315 138.595 144.59 139.223 147.005 139.874C149.397 140.502 151.859 141.141 154.392 141.792C156.924 142.42 159.398 143.047 161.814 143.675C164.206 144.279 166.469 144.872 168.603 145.454C170.737 146.035 172.589 146.582 174.161 147.094C175.076 147.632 175.804 148.169 176.344 148.707C176.884 149.222 177.155 149.994 177.157 151.026C177.159 151.635 177.054 152.198 176.844 152.714C176.658 153.206 176.389 153.641 176.039 154.016C175.688 154.392 175.29 154.686 174.845 154.898C174.377 155.11 173.885 155.216 173.369 155.217Z" fill="currentColor"/>
</svg>
