<svg width="120" height="127" viewBox="0 0 57 127" fill="none" xmlns="http://www.w3.org/2000/svg">
<g clip-path="url(#clip0)">
<path fill="currentColor" d="M3.92393 125.325C4.3458 125.324 4.70896 125.264 5.0134 125.147C5.5052 124.958 6.50063 124.64 7.99969 124.191C9.49871 123.719 11.3491 123.153 13.5508 122.492C15.776 121.808 18.2822 121.052 21.0696 120.226C23.8569 119.377 26.7964 118.492 29.8883 117.571C33.0035 116.627 36.189 115.671 39.4448 114.703C42.7005 113.712 45.9094 112.745 49.0715 111.801L49.0364 111.801C49.6923 111.635 50.3482 111.458 51.004 111.269C51.6833 111.057 52.304 110.856 52.8661 110.668C53.4281 110.455 53.9082 110.255 54.3062 110.067C54.7276 109.855 55.0085 109.679 55.1489 109.538C55.5465 109.162 55.8619 108.657 56.0949 108.024C56.328 107.391 56.4439 106.77 56.4426 106.16C56.4409 105.34 56.2871 104.66 55.9813 104.122C55.6989 103.584 55.2644 103.127 54.6777 102.754C54.1143 102.356 53.4105 102.018 52.5662 101.739C51.7218 101.436 50.7602 101.121 49.6814 100.795L21.6435 92.0297L20.1659 91.5406C24.0538 90.2668 27.5321 89.1932 30.6006 88.3196C33.669 87.4225 36.3979 86.6551 38.7872 86.0173C41.1999 85.356 43.3198 84.7891 45.1469 84.3165C46.974 83.8205 48.6136 83.3366 50.0658 82.8648C50.7918 82.6289 51.5296 82.393 52.2791 82.1571C53.0286 81.9211 53.7077 81.6267 54.3164 81.2739C54.925 80.8976 55.4162 80.4278 55.79 79.8646C56.1872 79.2778 56.3848 78.5039 56.3828 77.543C56.3811 76.7227 56.2507 76.0081 55.9916 75.3993C55.7559 74.7904 55.2042 74.3111 54.3362 73.9613C53.9375 73.7981 53.527 73.6349 53.1047 73.4717C52.6825 73.3085 52.143 73.1104 51.4863 72.8774C50.853 72.621 50.0437 72.318 49.0586 71.9685C48.0735 71.6189 46.8187 71.188 45.2942 70.6755C43.7697 70.1631 41.9286 69.5576 39.7709 68.8589C37.6131 68.1603 35.0216 67.3337 31.9961 66.3791C28.9941 65.401 25.4996 64.295 21.5126 63.0612C17.549 61.8038 13.0109 60.3836 7.89821 58.8005C7.14762 58.5208 6.50262 58.2995 5.96322 58.1366C5.42377 57.9502 4.91962 57.8341 4.45077 57.7882C3.8413 57.7426 3.26715 57.779 2.72834 57.8973C2.18947 57.9921 1.7094 58.1806 1.28811 58.4628C0.890261 58.7449 0.574664 59.1322 0.341318 59.6249C0.107972 60.1176 -0.00794219 60.7272 -0.00642392 61.4538C-0.00446487 62.3913 0.19637 63.1643 0.59608 63.7728C0.972352 64.3814 1.44215 64.8843 2.00549 65.2816C2.56877 65.6554 3.17875 65.9471 3.83544 66.1567C4.49213 66.3663 5.10185 66.529 5.66459 66.6451C7.30614 67.0869 9.1236 67.5871 11.117 68.1454C13.1338 68.7037 15.2444 69.2969 17.4488 69.9251C19.6533 70.5533 21.8929 71.2049 24.1678 71.8798C26.466 72.5547 28.7057 73.2297 30.8868 73.9049C33.0913 74.5565 35.1786 75.2084 37.1488 75.8605C39.1188 76.4892 40.9013 77.0832 42.4962 77.6423C40.0137 78.5381 37.4959 79.352 34.9427 80.0839C32.413 80.8158 29.8598 81.5477 27.2832 82.2796C24.73 82.9881 22.1652 83.7317 19.5887 84.5105C17.0356 85.2659 14.4944 86.1149 11.9651 87.0577C11.4967 87.2462 10.9814 87.3879 10.4191 87.4828C9.85673 87.5543 9.38806 87.5904 9.01306 87.5912C8.35681 87.5926 7.81802 87.7226 7.39668 87.9813C6.97535 88.24 6.63621 88.5806 6.37928 89.003C6.14574 89.4019 5.97092 89.8593 5.85481 90.3752C5.76213 90.891 5.71634 91.4067 5.71741 91.9223C5.71923 92.7895 5.83788 93.4924 6.07338 94.031C6.33227 94.5461 6.673 94.9672 7.09556 95.2945C7.51807 95.5983 7.98731 95.8317 8.50327 95.9947C9.04263 96.1342 9.59365 96.2502 10.1563 96.3428C10.4846 96.389 10.8011 96.4469 11.1059 96.5166C11.4342 96.5628 11.7624 96.6324 12.0907 96.7254C13.4978 97.1209 15.0456 97.563 16.7342 98.0517C18.4461 98.5169 20.2166 99.0171 22.0459 99.5523C23.8986 100.087 25.763 100.646 27.6393 101.228C29.5389 101.787 31.3799 102.357 33.1624 102.939C34.9682 103.498 36.6803 104.057 38.2987 104.616C39.917 105.152 41.3712 105.653 42.6612 106.119C41.0687 106.708 39.195 107.321 37.0401 107.958C34.9085 108.572 32.6364 109.21 30.2237 109.871C27.8344 110.509 25.3748 111.159 22.845 111.82C20.315 112.458 17.8437 113.096 15.431 113.734C13.0416 114.348 10.7812 114.951 8.64959 115.541C6.518 116.132 4.6676 116.686 3.09837 117.205C2.18543 117.746 1.46 118.287 0.922062 118.827C0.384078 119.344 0.116164 120.118 0.118318 121.149C0.119592 121.758 0.226236 122.321 0.43825 122.836C0.626778 123.328 0.897215 123.761 1.24956 124.135C1.60191 124.509 2.00095 124.801 2.44671 125.011C2.9159 125.221 3.4083 125.326 3.92393 125.325Z" fill="black"/>
<path fill="currentColor" d="M53.2521 70.2172C52.8303 70.2181 52.4669 70.1603 52.1619 70.0437C51.6693 69.8573 50.6726 69.5429 49.1717 69.1008C47.6707 68.6351 45.818 68.0765 43.6135 67.4249C41.3855 66.7498 38.8761 66.0051 36.0853 65.1906C33.2945 64.3527 30.3513 63.4799 27.2556 62.5723C24.1365 61.6413 20.947 60.6988 17.6872 59.7447C14.4273 58.7671 11.2144 57.8129 8.04839 56.882L8.08354 56.8819C7.42695 56.7192 6.77034 56.5448 6.1137 56.3587C5.43357 56.1492 4.81206 55.9512 4.24917 55.7649C3.68623 55.5551 3.20535 55.3569 2.80652 55.1703C2.3842 54.9602 2.10259 54.785 1.96167 54.6447C1.56245 54.2705 1.24499 53.7673 1.00929 53.135C0.773596 52.5026 0.655111 51.8818 0.653837 51.2724C0.652123 50.4521 0.803046 49.7721 1.10661 49.2324C1.38673 48.6928 1.81937 48.2348 2.40452 47.8586C2.96619 47.459 3.6686 47.1177 4.51176 46.8347C5.35487 46.5282 6.31515 46.2098 7.39258 45.8794L35.3936 36.9967L36.8691 36.5014C32.9759 35.2439 29.4932 34.1848 26.4211 33.324C23.3489 32.4398 20.6169 31.6838 18.2249 31.056C15.8095 30.4048 13.6872 29.8467 11.8581 29.3818C10.029 28.8934 8.38734 28.4164 6.93324 27.9506C6.20619 27.7178 5.46742 27.485 4.71693 27.2522C3.96645 27.0193 3.28615 26.7278 2.67604 26.3775C2.06588 26.0038 1.57272 25.5361 1.19654 24.9743C0.79688 24.3892 0.596045 23.6162 0.594037 22.6553C0.592323 21.835 0.719735 21.1199 0.976274 20.51C1.20938 19.9001 1.75915 19.4185 2.6256 19.0651C3.0237 18.9002 3.43351 18.7353 3.85504 18.5703C4.27657 18.4054 4.81522 18.2051 5.47097 17.9693C6.10325 17.7102 6.9112 17.4038 7.89484 17.0502C8.87848 16.6966 10.1315 16.2603 11.6538 15.7415C13.1762 15.2227 15.0148 14.6095 17.1695 13.9019C19.3243 13.1943 21.9124 12.3568 24.9338 11.3896C27.9318 10.3989 31.4216 9.27834 35.4034 8.02783C39.3617 6.75393 43.8938 5.31477 48.9999 3.71035C49.7493 3.42753 50.3933 3.20353 50.9321 3.03834C51.4707 2.84971 51.9744 2.73147 52.443 2.68362C53.0523 2.63547 53.6266 2.66943 54.1659 2.78549C54.7052 2.87811 55.186 3.06461 55.6085 3.34497C56.0075 3.62539 56.3247 4.01145 56.5601 4.50314C56.7955 4.99484 56.914 5.60397 56.9155 6.33053C56.9175 7.26803 56.7199 8.04188 56.3227 8.65209C55.949 9.26224 55.4813 9.76713 54.9196 10.1667C54.3579 10.5429 53.7491 10.8372 53.0933 11.0495C52.4375 11.2618 51.8285 11.4271 51.2662 11.5455C49.6266 11.9942 47.8112 12.5019 45.8202 13.0686C43.8058 13.6353 41.6976 14.2373 39.4958 14.8748C37.294 15.5122 35.0571 16.1731 32.7851 16.8575C30.4897 17.542 28.2528 18.2264 26.0745 18.9106C23.8728 19.5715 21.7882 20.2321 19.8209 20.8925C17.8534 21.5294 16.0734 22.1308 14.4809 22.6966C16.9671 23.582 19.4883 24.3853 22.0445 25.1066C24.5773 25.8278 27.1335 26.5491 29.7131 27.2702C32.2693 27.968 34.8372 28.7009 37.4169 29.469C39.9732 30.2136 42.5179 31.0521 45.0511 31.9843C45.5203 32.1708 46.0362 32.3104 46.5989 32.4029C47.1615 32.4721 47.6303 32.5062 48.0053 32.5055C48.6616 32.5041 49.2009 32.6319 49.6233 32.8888C50.0458 33.1457 50.3863 33.4849 50.645 33.9062C50.8802 34.3041 51.0569 34.7608 51.1752 35.2762C51.27 35.7916 51.318 36.3071 51.3191 36.8228C51.3209 37.6899 51.2052 38.3933 50.9719 38.9329C50.7152 39.449 50.3762 39.8716 49.955 40.2006C49.5338 40.5062 49.0655 40.7415 48.5502 40.9067C48.0115 41.0484 47.4609 41.1668 46.8986 41.2617C46.5706 41.3093 46.2543 41.3685 45.9498 41.4395C45.6218 41.487 45.2938 41.558 44.9659 41.6525C43.5604 42.0538 42.0145 42.5024 40.328 42.9981C38.6181 43.4704 36.8496 43.978 35.0226 44.5209C33.1722 45.0638 31.3101 45.6302 29.4363 46.2201C27.5391 46.7865 25.7004 47.3646 23.9204 47.9543C22.1169 48.5205 20.4071 49.0866 18.7911 49.6525C17.1751 50.1949 15.723 50.7019 14.4349 51.1733C16.0299 51.7559 17.9062 52.3614 20.0637 52.9897C22.1978 53.5946 24.4726 54.2226 26.888 54.8739C29.2799 55.5017 31.7422 56.1411 34.2748 56.792C36.8074 57.4195 39.2814 58.0472 41.6967 58.6749C44.0886 59.2793 46.3516 59.8723 48.4856 60.4537C50.6197 61.0352 52.4724 61.5821 54.0438 62.0945C54.9589 62.6316 55.6866 63.1692 56.2268 63.7071C56.767 64.2216 57.0381 64.9945 57.0403 66.0257C57.0415 66.6351 56.9372 67.1978 56.7274 67.7139C56.5409 68.2064 56.2723 68.6406 55.9215 69.0163C55.5707 69.3921 55.1729 69.6859 54.728 69.8977C54.2597 70.1097 53.7678 70.2162 53.2521 70.2172Z" fill="black"/>
</g>
<defs>
<clipPath id="clip0">
<rect width="57" height="127" fill="white"/>
</clipPath>
</defs>
</svg>
